<svg xmlns="http://www.w3.org/2000/svg" width="415" height="415" viewBox="0 0 415 415"><path d="M368.346 131.916h-53.777v-53.777h-13.444v53.777h-53.777v13.444h53.777v53.777h13.444v-53.777h53.777zM188.43 232.613c-7.512-5.317-21.877-18.25-21.877-25.851 0-8.908 2.543-13.298 15.951-23.774 13.745-10.74 23.472-25.836 23.472-43.4 0-20.905-9.311-41.283-26.79-48.004h26.352l18.599-13.445h-83.108c-37.26 0-72.326 28.228-72.326 60.926 0 33.413 25.398 60.381 63.304 60.381 2.636 0 5.197-.052 7.705-.232-2.46 4.709-4.219 10.015-4.219 15.521 0 9.286 4.995 16.815 11.312 22.96-4.771 0-9.381.138-14.407.138-46.15 0-81.671 29.393-81.671 59.872 0 30.017 38.94 48.795 85.092 48.795 52.613 0 81.672-29.853 81.672-59.872-.003-24.071-7.104-38.486-29.061-54.015zm-44.399-41.638c-21.414-.64-41.762-23.955-45.458-52.069-3.695-28.119 10.661-49.641 32.069-49.001 21.406.644 41.763 23.205 45.46 51.32 3.694 28.119-10.666 50.389-32.071 49.75zm-8.385 142.254c-31.898 0-54.938-20.192-54.938-44.449 0-23.773 28.576-43.562 60.475-43.218 7.445.079 14.382 1.277 20.681 3.315 17.315 12.042 29.737 18.847 33.241 32.57.66 2.784 1.018 5.646 1.018 8.57 0 24.256-15.63 43.212-60.477 43.212z"/></svg>