<svg xmlns="http://www.w3.org/2000/svg" width="415" height="414.996" viewBox="0 0 415 414.996"><path fill-rule="evenodd" clip-rule="evenodd" d="M163.614 87.214h53.129c19.612 2.331 48.146 19.13 58.675 41.475 2.895 6.27 4.421 7.234 6.832 25.801 1.286 9.565 1.93 16.639 6.189 20.577 6.028 5.466 28.373 1.769 32.794 5.225l3.376 2.652 2.01 4.18.723 3.376-.482 61.407c-.24 41.716-34.16 75.876-75.956 75.876h-87.289c-41.796 0-75.956-34.16-75.956-75.876v-88.655c-.001-41.797 34.159-76.038 75.955-76.038zm.965 149.099c-8.038 0-14.549 6.511-14.549 14.468 0 7.877 6.511 14.468 14.549 14.468h85.601c7.957 0 14.468-6.591 14.468-14.468 0-7.957-6.511-14.468-14.468-14.468h-85.601zm0-86.967c-8.038 0-14.549 6.511-14.549 14.468s6.511 14.548 14.549 14.548h42.117c8.037 0 14.548-6.591 14.548-14.548s-6.511-14.468-14.548-14.468h-42.117z"/></svg>