<svg xmlns="http://www.w3.org/2000/svg" width="415" height="414.996" viewBox="0 0 415 414.996"><path d="M345.358 127.048c-9.754 4.326-20.237 7.249-31.239 8.564 11.229-6.731 19.854-17.39 23.915-30.092-10.511 6.233-22.15 10.76-34.541 13.199-9.921-10.571-24.058-17.176-39.701-17.176-30.039 0-54.393 24.353-54.393 54.391 0 4.263.48 8.414 1.408 12.396-45.205-2.269-85.283-23.923-112.11-56.831-4.683 8.033-7.364 17.376-7.364 27.345 0 18.871 9.602 35.52 24.197 45.273-8.917-.283-17.304-2.729-24.637-6.803l-.005.684c0 26.354 18.749 48.335 43.632 53.335-4.564 1.242-9.369 1.908-14.33 1.908-3.505 0-6.912-.342-10.234-.977 6.922 21.608 27.01 37.334 50.811 37.771-18.614 14.59-42.068 23.287-67.552 23.287-4.39 0-8.72-.259-12.975-.762 24.071 15.433 52.662 24.438 83.378 24.438 100.047 0 154.757-82.881 154.757-154.758 0-2.358-.053-4.704-.157-7.037 10.628-7.669 19.848-17.248 27.14-28.155z"/></svg>